<svg width="96" height="36" viewBox="0 0 96 36" fill="none" xmlns="http://www.w3.org/2000/svg">
<path d="M19.5511 0.871999C20.1911 1.288 20.6071 1.832 20.7991 2.504C21.0231 3.176 20.8631 3.912 20.3191 4.712L7.79106 22.808H17.7271V14.936C17.7271 14.04 18.0311 13.384 18.6391 12.968C19.2471 12.552 19.9511 12.344 20.7511 12.344C21.5511 12.344 22.2551 12.552 22.8631 12.968C23.4711 13.384 23.7751 14.04 23.7751 14.936V22.808H26.7031C27.4391 22.808 27.9671 23.064 28.2871 23.576C28.6071 24.056 28.7671 24.632 28.7671 25.304C28.7671 25.944 28.6071 26.52 28.2871 27.032C27.9671 27.512 27.4391 27.752 26.7031 27.752H23.7751V32.504C23.7751 33.4 23.4711 34.056 22.8631 34.472C22.2551 34.888 21.5511 35.096 20.7511 35.096C19.9511 35.096 19.2471 34.888 18.6391 34.472C18.0311 34.056 17.7271 33.4 17.7271 32.504V27.752H4.28706C2.94306 27.752 1.96706 27.512 1.35906 27.032C0.783064 26.552 0.495064 25.8 0.495064 24.776C0.495064 24.616 0.511064 24.456 0.543064 24.296C0.575064 24.104 0.639064 23.896 0.735064 23.672C0.831064 23.416 0.975064 23.128 1.16706 22.808C1.35906 22.456 1.63106 22.024 1.98306 21.512L15.7591 1.592C16.2391 0.887998 16.8311 0.503998 17.5351 0.439999C18.2391 0.343998 18.9111 0.487998 19.5511 0.871999ZM41.6847 0.151999C46.1327 0.151999 49.3647 1.592 51.3807 4.472C53.4287 7.352 54.4527 11.432 54.4527 16.712V18.776C54.4527 24.056 53.4287 28.136 51.3807 31.016C49.3647 33.896 46.1327 35.336 41.6847 35.336C37.2367 35.336 33.9887 33.896 31.9407 31.016C29.9247 28.136 28.9167 24.056 28.9167 18.776V16.712C28.9167 11.432 29.9247 7.352 31.9407 4.472C33.9887 1.592 37.2367 0.151999 41.6847 0.151999ZM41.6847 5.96C40.4367 5.96 39.3807 6.168 38.5167 6.584C37.6847 7 37.0127 7.672 36.5007 8.6C36.0207 9.496 35.6687 10.648 35.4447 12.056C35.2207 13.464 35.1087 15.16 35.1087 17.144V18.344C35.1087 20.328 35.2207 22.024 35.4447 23.432C35.6687 24.84 36.0207 26.008 36.5007 26.936C37.0127 27.832 37.6847 28.488 38.5167 28.904C39.3807 29.32 40.4367 29.528 41.6847 29.528C42.9327 29.528 43.9727 29.32 44.8047 28.904C45.6687 28.488 46.3407 27.832 46.8207 26.936C47.3327 26.008 47.7007 24.84 47.9247 23.432C48.1487 22.024 48.2607 20.328 48.2607 18.344V17.144C48.2607 15.16 48.1487 13.464 47.9247 12.056C47.7007 10.648 47.3327 9.496 46.8207 8.6C46.3407 7.672 45.6687 7 44.8047 6.584C43.9727 6.168 42.9327 5.96 41.6847 5.96ZM65.1623 0.151999C67.8503 0.151999 69.8823 0.919999 71.2583 2.456C72.6663 3.992 73.3703 6.056 73.3703 8.648V9.656C73.3703 12.248 72.6663 14.312 71.2583 15.848C69.8823 17.384 67.8503 18.152 65.1623 18.152C62.4743 18.152 60.4263 17.384 59.0183 15.848C57.6423 14.312 56.9543 12.248 56.9543 9.656V8.648C56.9543 6.056 57.6423 3.992 59.0183 2.456C60.4263 0.919999 62.4743 0.151999 65.1623 0.151999ZM65.1623 4.376C63.9463 4.376 63.0663 4.744 62.5223 5.48C62.0103 6.216 61.7543 7.368 61.7543 8.936V9.416C61.7543 10.984 62.0103 12.136 62.5223 12.872C63.0663 13.576 63.9463 13.928 65.1623 13.928C66.3783 13.928 67.2423 13.576 67.7543 12.872C68.2983 12.136 68.5703 10.984 68.5703 9.416V8.936C68.5703 7.368 68.2983 6.216 67.7543 5.48C67.2423 4.744 66.3783 4.376 65.1623 4.376ZM86.7143 0.727998C87.2583 1.016 87.6423 1.448 87.8663 2.024C88.0903 2.568 87.9943 3.176 87.5783 3.848L69.2903 34.04C68.9383 34.616 68.4423 34.952 67.8023 35.048C67.1943 35.144 66.6183 35.048 66.0743 34.76C65.5303 34.472 65.1463 34.056 64.9223 33.512C64.6983 32.936 64.7943 32.312 65.2103 31.64L83.4983 1.448C83.8503 0.871999 84.3303 0.535999 84.9383 0.439999C85.5783 0.343998 86.1703 0.439998 86.7143 0.727998ZM87.5783 17.336C90.2663 17.336 92.2983 18.104 93.6743 19.64C95.0823 21.176 95.7863 23.24 95.7863 25.832V26.84C95.7863 29.432 95.0823 31.496 93.6743 33.032C92.2983 34.568 90.2663 35.336 87.5783 35.336C84.8903 35.336 82.8423 34.568 81.4343 33.032C80.0583 31.496 79.3703 29.432 79.3703 26.84V25.832C79.3703 23.24 80.0583 21.176 81.4343 19.64C82.8423 18.104 84.8903 17.336 87.5783 17.336ZM87.5783 21.56C86.3623 21.56 85.4823 21.928 84.9383 22.664C84.4263 23.4 84.1703 24.552 84.1703 26.12V26.6C84.1703 28.168 84.4263 29.32 84.9383 30.056C85.4823 30.76 86.3623 31.112 87.5783 31.112C88.7943 31.112 89.6583 30.76 90.1703 30.056C90.7143 29.32 90.9863 28.168 90.9863 26.6V26.12C90.9863 24.552 90.7143 23.4 90.1703 22.664C89.6583 21.928 88.7943 21.56 87.5783 21.56Z" fill="#282828"/>
</svg>
